<svg width="340" height="160" viewBox="0 0 340 160" fill="none" xmlns="http://www.w3.org/2000/svg">
<path d="M 6,150
  C 12,147 17,141 25,139
  C 31,137 35,143 43,141
  C 49,139 54,126 62,124
  C 68,122 73,128 81,127
  C 87,126 92,113 100,111
  C 107,109 111,116 119,115
  C 126,114 130,100 138,98
  C 145,96 149,103 157,101
  C 164,99 168,85 176,83
  C 183,81 187,88 195,86
  C 202,84 206,71 214,69
  C 221,67 225,74 233,72
  C 240,70 244,57 252,55
  C 259,53 263,60 271,58
  C 278,56 282,43 290,41
  C 297,39 301,45 309,43
  C 316,41 320,27 328,26
  C 334,25 337,14 340,8
  L 340,160 L 0,160 Z"
  fill="url(#jeffGrad)" fill-opacity="0.85"/>
<defs>
  <linearGradient id="jeffGrad" x1="170" y1="0" x2="170" y2="160" gradientUnits="userSpaceOnUse">
    <stop stop-color="#006745"/>
    <stop offset="1" stop-color="#00CD89" stop-opacity="0"/>
  </linearGradient>
</defs>
</svg>
