<svg width="329" height="210" viewBox="0 0 329 210" fill="none" xmlns="http://www.w3.org/2000/svg">
<path d="M4 206H10.7972L45.7912 174.329H52.0656L64.6143 162.736H70.8886L88.6659 144.9H95.986L101.737 139.55H108.012L113.763 133.307H121.083L125.789 127.957H133.109L139.907 120.823H145.658L151.41 115.472H157.684L163.435 110.121H170.755L188.533 92.2857H195.33L201.081 86.0433H207.356L213.63 79.8009L220.427 67.316L231.93 56.6147H238.205L244.479 51.2641H251.276L262.779 38.7792H269.577L294.151 15.5931H300.425L306.7 10.2424H312.974L319.249 4H325" stroke="#00CD89" stroke-width="8" stroke-linecap="round"/>
</svg>
