<svg width="316" height="206" viewBox="0 0 316 206" fill="none" xmlns="http://www.w3.org/2000/svg">
<path d="M36.0668 170.329L-0.00142097 206H315.203V0H309.453L303.18 6.24242H296.908L290.635 11.5931H284.362L259.794 34.7792H252.999L241.499 47.2641H234.703L228.43 52.6147H222.158L210.658 63.316L203.862 75.8009L197.589 82.0433H191.317L185.567 88.2857H178.771L160.999 106.121H153.68L147.93 111.472H141.658L135.908 116.823H130.158L123.362 123.957H116.044L111.339 129.307H104.021L98.2713 135.55H91.9986L86.2486 140.9H78.9304L61.1577 158.736H54.8849L42.3395 170.329H36.0668Z" fill="url(#paint0_linear_693_1868)"/>
<defs>
<linearGradient id="paint0_linear_693_1868" x1="48.7031" y1="-21" x2="178.703" y2="195.5" gradientUnits="userSpaceOnUse">
<stop stop-color="#006745"/>
<stop offset="1" stop-color="#00CD89" stop-opacity="0"/>
</linearGradient>
</defs>
</svg>
