<svg width="324" height="207" viewBox="0 0 324 207" fill="none" xmlns="http://www.w3.org/2000/svg">
<path d="M19.9775 203.004C10.0961 204.458 6.65915 203.61 0 206.094V207H323.828V0L321.68 1.81738C318.243 2.18086 307.825 12.3582 305.677 14.7208C303.958 16.6109 299.232 21.6874 297.084 23.9895C293.576 27.3819 285.656 34.2032 282.047 34.3485C277.536 34.5303 262.07 55.4302 256.914 58.7015C252.79 61.3185 246.532 78.0869 243.918 86.144C241.591 90.9903 236.593 100.901 235.219 101.773C233.5 102.864 229.848 107.589 226.948 108.498C224.048 109.406 216.423 123.582 215.563 125.399C214.704 127.217 209.763 135.759 208.26 136.667C206.756 137.576 201.923 142.119 200.526 143.755C199.13 145.391 191.934 146.845 189.678 146.845C187.423 146.845 178.831 147.39 177.005 149.025C175.179 150.661 164.009 151.389 161.109 151.207C158.789 151.062 151.836 155.387 148.65 157.568C146.394 159.628 141.217 164.074 138.553 165.383C135.224 167.018 131.357 168.837 128.242 168.473C125.128 168.11 119.65 174.289 116.106 175.925C112.561 177.56 109.124 195.552 106.224 198.824C103.324 202.096 93.3356 198.824 88.3949 198.824C83.4542 198.824 75.3988 200.641 68.7397 198.824C63.4123 197.37 57.4263 199.43 55.0991 200.641H41.029C36.6969 201.429 27.7536 203.004 26.6366 203.004H19.9775Z" fill="url(#paint0_linear_693_1403)" fill-opacity="0.75"/>
<defs>
<linearGradient id="paint0_linear_693_1403" x1="146.374" y1="47.5" x2="186.946" y2="201.537" gradientUnits="userSpaceOnUse">
<stop stop-color="#006745"/>
<stop offset="1" stop-color="#00CD89" stop-opacity="0"/>
</linearGradient>
</defs>
</svg>
