<svg width="330" height="214" viewBox="0 0 330 214" fill="none" xmlns="http://www.w3.org/2000/svg">
<path d="M21.3693 206.915V202.915H21.0769L20.7876 202.957L21.3693 206.915ZM42.4138 204.555V200.555H42.0535L41.6991 200.62L42.4138 204.555ZM56.4793 204.555V208.555H57.4573L58.325 208.104L56.4793 204.555ZM70.1153 202.74L69.0631 206.599L70.1153 202.74ZM139.906 169.343L141.668 172.934L139.906 169.343ZM149.999 161.539L147.741 158.237L147.51 158.395L147.303 158.584L149.999 161.539ZM162.454 155.187L162.704 151.195L162.454 155.187ZM236.539 105.819L238.681 109.198L236.539 105.819ZM245.236 90.2105L248.841 91.9434L248.957 91.7013L249.04 91.4459L245.236 90.2105ZM258.228 62.8047L260.369 66.1831V66.1831L258.228 62.8047ZM283.352 38.4842L283.513 42.481L283.352 38.4842ZM298.384 28.1389L301.163 31.016L301.237 30.9445L301.307 30.8694L298.384 28.1389ZM306.974 18.8827L309.932 21.575L306.974 18.8827ZM322.972 5.99645L323.392 9.97432L324.665 9.83982L325.624 8.99122L322.972 5.99645ZM327.878 6.99477C329.532 5.53029 329.686 3.00229 328.221 1.34833C326.757 -0.305637 324.229 -0.459246 322.575 1.00523L325.227 4L327.878 6.99477ZM1.39844 210L2.79507 213.748C5.69454 212.668 7.84996 212.312 10.5567 212.053C13.2867 211.792 16.8816 211.617 21.951 210.872L21.3693 206.915L20.7876 202.957C15.9789 203.664 12.9168 203.791 9.79515 204.09C6.65025 204.391 3.75928 204.852 0.00180137 206.252L1.39844 210ZM21.3693 206.915V210.915C21.3727 210.915 21.3761 210.915 21.3796 210.915C21.383 210.915 21.3865 210.915 21.3899 210.915C21.3934 210.915 21.3968 210.915 21.4003 210.915C21.4038 210.915 21.4073 210.915 21.4107 210.915C21.4142 210.915 21.4177 210.915 21.4212 210.915C21.4247 210.915 21.4282 210.915 21.4318 210.915C21.4353 210.915 21.4388 210.915 21.4423 210.915C21.4459 210.915 21.4494 210.915 21.453 210.915C21.4565 210.915 21.4601 210.915 21.4636 210.915C21.4672 210.915 21.4707 210.915 21.4743 210.915C21.4779 210.915 21.4815 210.915 21.4851 210.915C21.4887 210.915 21.4923 210.915 21.4959 210.915C21.4995 210.915 21.5031 210.915 21.5067 210.915C21.5103 210.915 21.514 210.915 21.5176 210.915C21.5212 210.915 21.5249 210.915 21.5285 210.915C21.5322 210.915 21.5358 210.915 21.5395 210.915C21.5432 210.915 21.5468 210.915 21.5505 210.915C21.5542 210.915 21.5579 210.915 21.5616 210.915C21.5653 210.915 21.569 210.915 21.5727 210.915C21.5764 210.915 21.5801 210.915 21.5838 210.915C21.5875 210.915 21.5913 210.915 21.595 210.915C21.5987 210.915 21.6025 210.915 21.6062 210.915C21.61 210.915 21.6137 210.915 21.6175 210.915C21.6213 210.915 21.625 210.915 21.6288 210.915C21.6326 210.915 21.6364 210.915 21.6402 210.915C21.644 210.915 21.6477 210.915 21.6516 210.915C21.6554 210.915 21.6592 210.915 21.663 210.915C21.6668 210.915 21.6706 210.915 21.6745 210.915C21.6783 210.915 21.6821 210.915 21.686 210.915C21.6898 210.915 21.6937 210.915 21.6975 210.915C21.7014 210.915 21.7053 210.915 21.7091 210.915C21.713 210.915 21.7169 210.915 21.7208 210.915C21.7247 210.915 21.7285 210.915 21.7324 210.915C21.7363 210.915 21.7403 210.915 21.7442 210.915C21.7481 210.915 21.752 210.915 21.7559 210.915C21.7598 210.915 21.7638 210.915 21.7677 210.915C21.7717 210.915 21.7756 210.915 21.7796 210.915C21.7835 210.915 21.7875 210.915 21.7914 210.915C21.7954 210.915 21.7994 210.915 21.8033 210.915C21.8073 210.915 21.8113 210.915 21.8153 210.915C21.8193 210.915 21.8233 210.915 21.8273 210.915C21.8313 210.915 21.8353 210.915 21.8393 210.915C21.8433 210.915 21.8473 210.915 21.8514 210.915C21.8554 210.915 21.8594 210.915 21.8635 210.915C21.8675 210.915 21.8715 210.915 21.8756 210.915C21.8797 210.915 21.8837 210.915 21.8878 210.915C21.8918 210.915 21.8959 210.915 21.9 210.915C21.9041 210.915 21.9081 210.915 21.9122 210.915C21.9163 210.915 21.9204 210.915 21.9245 210.915C21.9286 210.915 21.9327 210.915 21.9368 210.915C21.941 210.915 21.9451 210.915 21.9492 210.915C21.9533 210.915 21.9575 210.915 21.9616 210.915C21.9657 210.915 21.9699 210.915 21.974 210.915C21.9782 210.915 21.9823 210.915 21.9865 210.915C21.9906 210.915 21.9948 210.915 21.999 210.915C22.0032 210.915 22.0073 210.915 22.0115 210.915C22.0157 210.915 22.0199 210.915 22.0241 210.915C22.0283 210.915 22.0325 210.915 22.0367 210.915C22.0409 210.915 22.0451 210.915 22.0493 210.915C22.0535 210.915 22.0578 210.915 22.062 210.915C22.0662 210.915 22.0705 210.915 22.0747 210.915C22.0789 210.915 22.0832 210.915 22.0874 210.915C22.0917 210.915 22.096 210.915 22.1002 210.915C22.1045 210.915 22.1087 210.915 22.113 210.915C22.1173 210.915 22.1216 210.915 22.1259 210.915C22.1301 210.915 22.1344 210.915 22.1387 210.915C22.143 210.915 22.1473 210.915 22.1516 210.915C22.1559 210.915 22.1603 210.915 22.1646 210.915C22.1689 210.915 22.1732 210.915 22.1775 210.915C22.1819 210.915 22.1862 210.915 22.1905 210.915C22.1949 210.915 22.1992 210.915 22.2036 210.915C22.2079 210.915 22.2123 210.915 22.2166 210.915C22.221 210.915 22.2254 210.915 22.2297 210.915C22.2341 210.915 22.2385 210.915 22.2429 210.915C22.2473 210.915 22.2516 210.915 22.256 210.915C22.2604 210.915 22.2648 210.915 22.2692 210.915C22.2736 210.915 22.278 210.915 22.2824 210.915C22.2869 210.915 22.2913 210.915 22.2957 210.915C22.3001 210.915 22.3045 210.915 22.309 210.915C22.3134 210.915 22.3178 210.915 22.3223 210.915C22.3267 210.915 22.3312 210.915 22.3356 210.915C22.3401 210.915 22.3445 210.915 22.349 210.915C22.3535 210.915 22.3579 210.915 22.3624 210.915C22.3669 210.915 22.3713 210.915 22.3758 210.915C22.3803 210.915 22.3848 210.915 22.3893 210.915C22.3938 210.915 22.3983 210.915 22.4028 210.915C22.4073 210.915 22.4118 210.915 22.4163 210.915C22.4208 210.915 22.4253 210.915 22.4298 210.915C22.4343 210.915 22.4389 210.915 22.4434 210.915C22.4479 210.915 22.4524 210.915 22.457 210.915C22.4615 210.915 22.4661 210.915 22.4706 210.915C22.4752 210.915 22.4797 210.915 22.4843 210.915C22.4888 210.915 22.4934 210.915 22.4979 210.915C22.5025 210.915 22.5071 210.915 22.5117 210.915C22.5162 210.915 22.5208 210.915 22.5254 210.915C22.53 210.915 22.5346 210.915 22.5391 210.915C22.5437 210.915 22.5483 210.915 22.5529 210.915C22.5575 210.915 22.5621 210.915 22.5667 210.915C22.5714 210.915 22.576 210.915 22.5806 210.915C22.5852 210.915 22.5898 210.915 22.5944 210.915C22.5991 210.915 22.6037 210.915 22.6083 210.915C22.613 210.915 22.6176 210.915 22.6223 210.915C22.6269 210.915 22.6315 210.915 22.6362 210.915C22.6408 210.915 22.6455 210.915 22.6502 210.915C22.6548 210.915 22.6595 210.915 22.6641 210.915C22.6688 210.915 22.6735 210.915 22.6782 210.915C22.6828 210.915 22.6875 210.915 22.6922 210.915C22.6969 210.915 22.7016 210.915 22.7063 210.915C22.711 210.915 22.7157 210.915 22.7204 210.915C22.725 210.915 22.7298 210.915 22.7345 210.915C22.7392 210.915 22.7439 210.915 22.7486 210.915C22.7533 210.915 22.758 210.915 22.7628 210.915C22.7675 210.915 22.7722 210.915 22.7769 210.915C22.7817 210.915 22.7864 210.915 22.7911 210.915C22.7959 210.915 22.8006 210.915 22.8054 210.915C22.8101 210.915 22.8149 210.915 22.8196 210.915C22.8244 210.915 22.8291 210.915 22.8339 210.915C22.8386 210.915 22.8434 210.915 22.8482 210.915C22.8529 210.915 22.8577 210.915 22.8625 210.915C22.8673 210.915 22.872 210.915 22.8768 210.915C22.8816 210.915 22.8864 210.915 22.8912 210.915C22.896 210.915 22.9008 210.915 22.9055 210.915C22.9103 210.915 22.9151 210.915 22.9199 210.915C22.9247 210.915 22.9296 210.915 22.9344 210.915C22.9392 210.915 22.944 210.915 22.9488 210.915C22.9536 210.915 22.9584 210.915 22.9633 210.915C22.9681 210.915 22.9729 210.915 22.9777 210.915C22.9826 210.915 22.9874 210.915 22.9922 210.915C22.9971 210.915 23.0019 210.915 23.0068 210.915C23.0116 210.915 23.0165 210.915 23.0213 210.915C23.0261 210.915 23.031 210.915 23.0359 210.915C23.0407 210.915 23.0456 210.915 23.0504 210.915C23.0553 210.915 23.0602 210.915 23.065 210.915C23.0699 210.915 23.0748 210.915 23.0796 210.915C23.0845 210.915 23.0894 210.915 23.0943 210.915C23.0992 210.915 23.104 210.915 23.1089 210.915C23.1138 210.915 23.1187 210.915 23.1236 210.915C23.1285 210.915 23.1334 210.915 23.1383 210.915C23.1432 210.915 23.1481 210.915 23.153 210.915C23.1579 210.915 23.1628 210.915 23.1677 210.915C23.1726 210.915 23.1775 210.915 23.1824 210.915C23.1874 210.915 23.1923 210.915 23.1972 210.915C23.2021 210.915 23.207 210.915 23.212 210.915C23.2169 210.915 23.2218 210.915 23.2268 210.915C23.2317 210.915 23.2366 210.915 23.2416 210.915C23.2465 210.915 23.2514 210.915 23.2564 210.915C23.2613 210.915 23.2663 210.915 23.2712 210.915C23.2762 210.915 23.2811 210.915 23.2861 210.915C23.291 210.915 23.296 210.915 23.3009 210.915C23.3059 210.915 23.3109 210.915 23.3158 210.915C23.3208 210.915 23.3257 210.915 23.3307 210.915C23.3357 210.915 23.3407 210.915 23.3456 210.915C23.3506 210.915 23.3556 210.915 23.3606 210.915C23.3655 210.915 23.3705 210.915 23.3755 210.915C23.3805 210.915 23.3855 210.915 23.3904 210.915C23.3954 210.915 23.4004 210.915 23.4054 210.915C23.4104 210.915 23.4154 210.915 23.4204 210.915C23.4254 210.915 23.4304 210.915 23.4354 210.915C23.4404 210.915 23.4454 210.915 23.4504 210.915C23.4554 210.915 23.4604 210.915 23.4654 210.915C23.4704 210.915 23.4755 210.915 23.4805 210.915C23.4855 210.915 23.4905 210.915 23.4955 210.915C23.5005 210.915 23.5056 210.915 23.5106 210.915C23.5156 210.915 23.5206 210.915 23.5257 210.915C23.5307 210.915 23.5357 210.915 23.5407 210.915C23.5458 210.915 23.5508 210.915 23.5558 210.915C23.5609 210.915 23.5659 210.915 23.5709 210.915C23.576 210.915 23.581 210.915 23.5861 210.915C23.5911 210.915 23.5961 210.915 23.6012 210.915C23.6062 210.915 23.6113 210.915 23.6163 210.915C23.6214 210.915 23.6264 210.915 23.6315 210.915C23.6365 210.915 23.6416 210.915 23.6467 210.915C23.6517 210.915 23.6568 210.915 23.6618 210.915C23.6669 210.915 23.6719 210.915 23.677 210.915C23.6821 210.915 23.6871 210.915 23.6922 210.915C23.6973 210.915 23.7023 210.915 23.7074 210.915C23.7125 210.915 23.7175 210.915 23.7226 210.915C23.7277 210.915 23.7328 210.915 23.7378 210.915C23.7429 210.915 23.748 210.915 23.7531 210.915C23.7582 210.915 23.7632 210.915 23.7683 210.915C23.7734 210.915 23.7785 210.915 23.7836 210.915C23.7886 210.915 23.7937 210.915 23.7988 210.915C23.8039 210.915 23.809 210.915 23.8141 210.915C23.8192 210.915 23.8243 210.915 23.8294 210.915C23.8345 210.915 23.8396 210.915 23.8446 210.915C23.8497 210.915 23.8548 210.915 23.8599 210.915C23.865 210.915 23.8701 210.915 23.8752 210.915C23.8803 210.915 23.8854 210.915 23.8905 210.915C23.8956 210.915 23.9007 210.915 23.9058 210.915C23.911 210.915 23.9161 210.915 23.9212 210.915C23.9263 210.915 23.9314 210.915 23.9365 210.915C23.9416 210.915 23.9467 210.915 23.9518 210.915C23.9569 210.915 23.962 210.915 23.9672 210.915C23.9723 210.915 23.9774 210.915 23.9825 210.915C23.9876 210.915 23.9927 210.915 23.9979 210.915C24.003 210.915 24.0081 210.915 24.0132 210.915C24.0183 210.915 24.0234 210.915 24.0286 210.915C24.0337 210.915 24.0388 210.915 24.0439 210.915C24.0491 210.915 24.0542 210.915 24.0593 210.915C24.0644 210.915 24.0695 210.915 24.0747 210.915C24.0798 210.915 24.0849 210.915 24.0901 210.915C24.0952 210.915 24.1003 210.915 24.1054 210.915C24.1106 210.915 24.1157 210.915 24.1208 210.915C24.126 210.915 24.1311 210.915 24.1362 210.915C24.1413 210.915 24.1465 210.915 24.1516 210.915C24.1567 210.915 24.1619 210.915 24.167 210.915C24.1721 210.915 24.1773 210.915 24.1824 210.915C24.1875 210.915 24.1927 210.915 24.1978 210.915C24.2029 210.915 24.2081 210.915 24.2132 210.915C24.2184 210.915 24.2235 210.915 24.2286 210.915C24.2338 210.915 24.2389 210.915 24.244 210.915C24.2492 210.915 24.2543 210.915 24.2595 210.915C24.2646 210.915 24.2697 210.915 24.2749 210.915C24.28 210.915 24.2852 210.915 24.2903 210.915C24.2954 210.915 24.3006 210.915 24.3057 210.915C24.3109 210.915 24.316 210.915 24.3211 210.915C24.3263 210.915 24.3314 210.915 24.3366 210.915C24.3417 210.915 24.3468 210.915 24.352 210.915C24.3571 210.915 24.3623 210.915 24.3674 210.915C24.3725 210.915 24.3777 210.915 24.3828 210.915C24.388 210.915 24.3931 210.915 24.3983 210.915C24.4034 210.915 24.4085 210.915 24.4137 210.915C24.4188 210.915 24.424 210.915 24.4291 210.915C24.4342 210.915 24.4394 210.915 24.4445 210.915C24.4497 210.915 24.4548 210.915 24.4599 210.915C24.4651 210.915 24.4702 210.915 24.4754 210.915C24.4805 210.915 24.4857 210.915 24.4908 210.915C24.4959 210.915 24.5011 210.915 24.5062 210.915C24.5114 210.915 24.5165 210.915 24.5216 210.915C24.5268 210.915 24.5319 210.915 24.537 210.915C24.5422 210.915 24.5473 210.915 24.5525 210.915C24.5576 210.915 24.5627 210.915 24.5679 210.915C24.573 210.915 24.5782 210.915 24.5833 210.915C24.5884 210.915 24.5936 210.915 24.5987 210.915C24.6038 210.915 24.609 210.915 24.6141 210.915C24.6192 210.915 24.6244 210.915 24.6295 210.915C24.6346 210.915 24.6398 210.915 24.6449 210.915C24.65 210.915 24.6552 210.915 24.6603 210.915C24.6654 210.915 24.6706 210.915 24.6757 210.915C24.6808 210.915 24.686 210.915 24.6911 210.915C24.6962 210.915 24.7013 210.915 24.7065 210.915C24.7116 210.915 24.7167 210.915 24.7219 210.915C24.727 210.915 24.7321 210.915 24.7372 210.915C24.7424 210.915 24.7475 210.915 24.7526 210.915C24.7577 210.915 24.7629 210.915 24.768 210.915C24.7731 210.915 24.7782 210.915 24.7833 210.915C24.7885 210.915 24.7936 210.915 24.7987 210.915C24.8038 210.915 24.8089 210.915 24.814 210.915C24.8192 210.915 24.8243 210.915 24.8294 210.915C24.8345 210.915 24.8396 210.915 24.8447 210.915C24.8498 210.915 24.855 210.915 24.8601 210.915C24.8652 210.915 24.8703 210.915 24.8754 210.915C24.8805 210.915 24.8856 210.915 24.8907 210.915C24.8958 210.915 24.9009 210.915 24.906 210.915C24.9111 210.915 24.9162 210.915 24.9213 210.915C24.9264 210.915 24.9315 210.915 24.9366 210.915C24.9417 210.915 24.9468 210.915 24.9519 210.915C24.957 210.915 24.9621 210.915 24.9672 210.915C24.9723 210.915 24.9774 210.915 24.9825 210.915C24.9876 210.915 24.9927 210.915 24.9978 210.915C25.0029 210.915 25.008 210.915 25.013 210.915C25.0181 210.915 25.0232 210.915 25.0283 210.915C25.0334 210.915 25.0385 210.915 25.0435 210.915C25.0486 210.915 25.0537 210.915 25.0588 210.915C25.0639 210.915 25.0689 210.915 25.074 210.915C25.0791 210.915 25.0842 210.915 25.0892 210.915C25.0943 210.915 25.0994 210.915 25.1044 210.915C25.1095 210.915 25.1146 210.915 25.1196 210.915C25.1247 210.915 25.1298 210.915 25.1348 210.915C25.1399 210.915 25.145 210.915 25.15 210.915C25.1551 210.915 25.1601 210.915 25.1652 210.915C25.1702 210.915 25.1753 210.915 25.1803 210.915C25.1854 210.915 25.1904 210.915 25.1955 210.915C25.2005 210.915 25.2056 210.915 25.2106 210.915C25.2157 210.915 25.2207 210.915 25.2258 210.915C25.2308 210.915 25.2358 210.915 25.2409 210.915C25.2459 210.915 25.2509 210.915 25.256 210.915C25.261 210.915 25.266 210.915 25.2711 210.915C25.2761 210.915 25.2811 210.915 25.2861 210.915C25.2912 210.915 25.2962 210.915 25.3012 210.915C25.3062 210.915 25.3113 210.915 25.3163 210.915C25.3213 210.915 25.3263 210.915 25.3313 210.915C25.3363 210.915 25.3413 210.915 25.3463 210.915C25.3514 210.915 25.3564 210.915 25.3614 210.915C25.3664 210.915 25.3714 210.915 25.3764 210.915C25.3814 210.915 25.3864 210.915 25.3914 210.915C25.3964 210.915 25.4014 210.915 25.4063 210.915C25.4113 210.915 25.4163 210.915 25.4213 210.915C25.4263 210.915 25.4313 210.915 25.4363 210.915C25.4412 210.915 25.4462 210.915 25.4512 210.915C25.4562 210.915 25.4611 210.915 25.4661 210.915C25.4711 210.915 25.4761 210.915 25.481 210.915C25.486 210.915 25.491 210.915 25.4959 210.915C25.5009 210.915 25.5058 210.915 25.5108 210.915C25.5157 210.915 25.5207 210.915 25.5257 210.915C25.5306 210.915 25.5356 210.915 25.5405 210.915C25.5454 210.915 25.5504 210.915 25.5553 210.915C25.5603 210.915 25.5652 210.915 25.5701 210.915C25.5751 210.915 25.58 210.915 25.5849 210.915C25.5899 210.915 25.5948 210.915 25.5997 210.915C25.6046 210.915 25.6096 210.915 25.6145 210.915C25.6194 210.915 25.6243 210.915 25.6292 210.915C25.6342 210.915 25.6391 210.915 25.644 210.915C25.6489 210.915 25.6538 210.915 25.6587 210.915C25.6636 210.915 25.6685 210.915 25.6734 210.915C25.6783 210.915 25.6832 210.915 25.6881 210.915C25.693 210.915 25.6978 210.915 25.7027 210.915C25.7076 210.915 25.7125 210.915 25.7174 210.915C25.7222 210.915 25.7271 210.915 25.732 210.915C25.7369 210.915 25.7417 210.915 25.7466 210.915C25.7515 210.915 25.7563 210.915 25.7612 210.915C25.766 210.915 25.7709 210.915 25.7758 210.915C25.7806 210.915 25.7855 210.915 25.7903 210.915C25.7952 210.915 25.8 210.915 25.8048 210.915C25.8097 210.915 25.8145 210.915 25.8194 210.915C25.8242 210.915 25.829 210.915 25.8338 210.915C25.8387 210.915 25.8435 210.915 25.8483 210.915C25.8531 210.915 25.858 210.915 25.8628 210.915C25.8676 210.915 25.8724 210.915 25.8772 210.915C25.882 210.915 25.8868 210.915 25.8916 210.915C25.8964 210.915 25.9012 210.915 25.906 210.915C25.9108 210.915 25.9156 210.915 25.9204 210.915C25.9252 210.915 25.9299 210.915 25.9347 210.915C25.9395 210.915 25.9443 210.915 25.949 210.915C25.9538 210.915 25.9586 210.915 25.9634 210.915C25.9681 210.915 25.9729 210.915 25.9776 210.915C25.9824 210.915 25.9871 210.915 25.9919 210.915C25.9966 210.915 26.0014 210.915 26.0061 210.915C26.0109 210.915 26.0156 210.915 26.0204 210.915C26.0251 210.915 26.0298 210.915 26.0345 210.915C26.0393 210.915 26.044 210.915 26.0487 210.915C26.0534 210.915 26.0582 210.915 26.0629 210.915C26.0676 210.915 26.0723 210.915 26.077 210.915C26.0817 210.915 26.0864 210.915 26.0911 210.915C26.0958 210.915 26.1005 210.915 26.1052 210.915C26.1099 210.915 26.1145 210.915 26.1192 210.915C26.1239 210.915 26.1286 210.915 26.1333 210.915C26.1379 210.915 26.1426 210.915 26.1473 210.915C26.1519 210.915 26.1566 210.915 26.1612 210.915C26.1659 210.915 26.1706 210.915 26.1752 210.915C26.1799 210.915 26.1845 210.915 26.1891 210.915C26.1938 210.915 26.1984 210.915 26.203 210.915C26.2077 210.915 26.2123 210.915 26.2169 210.915C26.2215 210.915 26.2262 210.915 26.2308 210.915C26.2354 210.915 26.24 210.915 26.2446 210.915C26.2492 210.915 26.2538 210.915 26.2584 210.915C26.263 210.915 26.2676 210.915 26.2722 210.915C26.2768 210.915 26.2814 210.915 26.2859 210.915C26.2905 210.915 26.2951 210.915 26.2997 210.915C26.3042 210.915 26.3088 210.915 26.3134 210.915C26.3179 210.915 26.3225 210.915 26.327 210.915C26.3316 210.915 26.3361 210.915 26.3407 210.915C26.3452 210.915 26.3498 210.915 26.3543 210.915C26.3588 210.915 26.3634 210.915 26.3679 210.915C26.3724 210.915 26.3769 210.915 26.3814 210.915C26.386 210.915 26.3905 210.915 26.395 210.915C26.3995 210.915 26.404 210.915 26.4085 210.915C26.413 210.915 26.4175 210.915 26.4219 210.915C26.4264 210.915 26.4309 210.915 26.4354 210.915C26.4399 210.915 26.4443 210.915 26.4488 210.915C26.4533 210.915 26.4577 210.915 26.4622 210.915C26.4667 210.915 26.4711 210.915 26.4756 210.915C26.48 210.915 26.4845 210.915 26.4889 210.915C26.4933 210.915 26.4978 210.915 26.5022 210.915C26.5066 210.915 26.511 210.915 26.5155 210.915C26.5199 210.915 26.5243 210.915 26.5287 210.915C26.5331 210.915 26.5375 210.915 26.5419 210.915C26.5463 210.915 26.5507 210.915 26.5551 210.915C26.5595 210.915 26.5639 210.915 26.5682 210.915C26.5726 210.915 26.577 210.915 26.5814 210.915C26.5857 210.915 26.5901 210.915 26.5944 210.915C26.5988 210.915 26.6031 210.915 26.6075 210.915C26.6118 210.915 26.6162 210.915 26.6205 210.915C26.6248 210.915 26.6292 210.915 26.6335 210.915C26.6378 210.915 26.6421 210.915 26.6465 210.915C26.6508 210.915 26.6551 210.915 26.6594 210.915C26.6637 210.915 26.668 210.915 26.6723 210.915C26.6766 210.915 26.6809 210.915 26.6851 210.915C26.6894 210.915 26.6937 210.915 26.698 210.915C26.7022 210.915 26.7065 210.915 26.7108 210.915C26.715 210.915 26.7193 210.915 26.7235 210.915C26.7278 210.915 26.732 210.915 26.7362 210.915C26.7405 210.915 26.7447 210.915 26.7489 210.915C26.7532 210.915 26.7574 210.915 26.7616 210.915C26.7658 210.915 26.77 210.915 26.7742 210.915C26.7784 210.915 26.7826 210.915 26.7868 210.915C26.791 210.915 26.7952 210.915 26.7994 210.915C26.8036 210.915 26.8077 210.915 26.8119 210.915C26.8161 210.915 26.8202 210.915 26.8244 210.915C26.8285 210.915 26.8327 210.915 26.8368 210.915C26.841 210.915 26.8451 210.915 26.8493 210.915C26.8534 210.915 26.8575 210.915 26.8616 210.915C26.8658 210.915 26.8699 210.915 26.874 210.915C26.8781 210.915 26.8822 210.915 26.8863 210.915C26.8904 210.915 26.8945 210.915 26.8986 210.915C26.9026 210.915 26.9067 210.915 26.9108 210.915C26.9149 210.915 26.9189 210.915 26.923 210.915C26.9271 210.915 26.9311 210.915 26.9352 210.915C26.9392 210.915 26.9432 210.915 26.9473 210.915C26.9513 210.915 26.9553 210.915 26.9594 210.915C26.9634 210.915 26.9674 210.915 26.9714 210.915C26.9754 210.915 26.9794 210.915 26.9834 210.915C26.9874 210.915 26.9914 210.915 26.9954 210.915C26.9994 210.915 27.0034 210.915 27.0073 210.915C27.0113 210.915 27.0153 210.915 27.0192 210.915C27.0232 210.915 27.0271 210.915 27.0311 210.915C27.035 210.915 27.039 210.915 27.0429 210.915C27.0468 210.915 27.0508 210.915 27.0547 210.915C27.0586 210.915 27.0625 210.915 27.0664 210.915C27.0703 210.915 27.0742 210.915 27.0781 210.915C27.082 210.915 27.0859 210.915 27.0898 210.915C27.0937 210.915 27.0976 210.915 27.1014 210.915C27.1053 210.915 27.1092 210.915 27.113 210.915C27.1169 210.915 27.1207 210.915 27.1245 210.915C27.1284 210.915 27.1322 210.915 27.1361 210.915C27.1399 210.915 27.1437 210.915 27.1475 210.915C27.1513 210.915 27.1551 210.915 27.1589 210.915C27.1627 210.915 27.1665 210.915 27.1703 210.915C27.1741 210.915 27.1779 210.915 27.1817 210.915C27.1854 210.915 27.1892 210.915 27.1929 210.915C27.1967 210.915 27.2005 210.915 27.2042 210.915C27.2079 210.915 27.2117 210.915 27.2154 210.915C27.2191 210.915 27.2229 210.915 27.2266 210.915C27.2303 210.915 27.234 210.915 27.2377 210.915C27.2414 210.915 27.2451 210.915 27.2488 210.915C27.2525 210.915 27.2562 210.915 27.2598 210.915C27.2635 210.915 27.2672 210.915 27.2708 210.915C27.2745 210.915 27.2781 210.915 27.2818 210.915C27.2854 210.915 27.2891 210.915 27.2927 210.915C27.2963 210.915 27.3 210.915 27.3036 210.915C27.3072 210.915 27.3108 210.915 27.3144 210.915C27.318 210.915 27.3216 210.915 27.3252 210.915C27.3288 210.915 27.3323 210.915 27.3359 210.915C27.3395 210.915 27.3431 210.915 27.3466 210.915C27.3502 210.915 27.3537 210.915 27.3573 210.915C27.3608 210.915 27.3643 210.915 27.3679 210.915C27.3714 210.915 27.3749 210.915 27.3784 210.915C27.3819 210.915 27.3854 210.915 27.3889 210.915C27.3924 210.915 27.3959 210.915 27.3994 210.915C27.4029 210.915 27.4064 210.915 27.4098 210.915C27.4133 210.915 27.4167 210.915 27.4202 210.915C27.4236 210.915 27.4271 210.915 27.4305 210.915C27.434 210.915 27.4374 210.915 27.4408 210.915C27.4442 210.915 27.4476 210.915 27.451 210.915C27.4544 210.915 27.4578 210.915 27.4612 210.915C27.4646 210.915 27.468 210.915 27.4714 210.915C27.4747 210.915 27.4781 210.915 27.4815 210.915C27.4848 210.915 27.4882 210.915 27.4915 210.915C27.4949 210.915 27.4982 210.915 27.5015 210.915C27.5048 210.915 27.5082 210.915 27.5115 210.915C27.5148 210.915 27.5181 210.915 27.5214 210.915C27.5247 210.915 27.5279 210.915 27.5312 210.915C27.5345 210.915 27.5378 210.915 27.541 210.915C27.5443 210.915 27.5475 210.915 27.5508 210.915C27.554 210.915 27.5573 210.915 27.5605 210.915C27.5637 210.915 27.5669 210.915 27.5702 210.915C27.5734 210.915 27.5766 210.915 27.5798 210.915C27.583 210.915 27.5861 210.915 27.5893 210.915C27.5925 210.915 27.5957 210.915 27.5988 210.915C27.602 210.915 27.6052 210.915 27.6083 210.915C27.6114 210.915 27.6146 210.915 27.6177 210.915C27.6208 210.915 27.624 210.915 27.6271 210.915C27.6302 210.915 27.6333 210.915 27.6364 210.915C27.6395 210.915 27.6426 210.915 27.6456 210.915C27.6487 210.915 27.6518 210.915 27.6549 210.915C27.6579 210.915 27.661 210.915 27.664 210.915C27.6671 210.915 27.6701 210.915 27.6731 210.915C27.6761 210.915 27.6792 210.915 27.6822 210.915C27.6852 210.915 27.6882 210.915 27.6912 210.915C27.6942 210.915 27.6971 210.915 27.7001 210.915C27.7031 210.915 27.7061 210.915 27.709 210.915C27.712 210.915 27.7149 210.915 27.7179 210.915C27.7208 210.915 27.7237 210.915 27.7267 210.915C27.7296 210.915 27.7325 210.915 27.7354 210.915C27.7383 210.915 27.7412 210.915 27.7441 210.915C27.747 210.915 27.7498 210.915 27.7527 210.915C27.7556 210.915 27.7584 210.915 27.7613 210.915C27.7641 210.915 27.767 210.915 27.7698 210.915C27.7727 210.915 27.7755 210.915 27.7783 210.915C27.7811 210.915 27.7839 210.915 27.7867 210.915C27.7895 210.915 27.7923 210.915 27.7951 210.915C27.7979 210.915 27.8006 210.915 27.8034 210.915C27.8061 210.915 27.8089 210.915 27.8116 210.915C27.8144 210.915 27.8171 210.915 27.8198 210.915C27.8226 210.915 27.8253 210.915 27.828 210.915C27.8307 210.915 27.8334 210.915 27.8361 210.915C27.8388 210.915 27.8414 210.915 27.8441 210.915C27.8468 210.915 27.8494 210.915 27.8521 210.915C27.8547 210.915 27.8574 210.915 27.86 210.915C27.8626 210.915 27.8653 210.915 27.8679 210.915C27.8705 210.915 27.8731 210.915 27.8757 210.915C27.8783 210.915 27.8808 210.915 27.8834 210.915C27.886 210.915 27.8886 210.915 27.8911 210.915C27.8937 210.915 27.8962 210.915 27.8988 210.915C27.9013 210.915 27.9038 210.915 27.9063 210.915C27.9089 210.915 27.9114 210.915 27.9139 210.915C27.9164 210.915 27.9188 210.915 27.9213 210.915C27.9238 210.915 27.9263 210.915 27.9287 210.915C27.9312 210.915 27.9336 210.915 27.9361 210.915C27.9385 210.915 27.9409 210.915 27.9434 210.915C27.9458 210.915 27.9482 210.915 27.9506 210.915C27.953 210.915 27.9554 210.915 27.9578 210.915C27.9602 210.915 27.9625 210.915 27.9649 210.915C27.9672 210.915 27.9696 210.915 27.9719 210.915C27.9743 210.915 27.9766 210.915 27.9789 210.915C27.9813 210.915 27.9836 210.915 27.9859 210.915C27.9882 210.915 27.9905 210.915 27.9927 210.915C27.995 210.915 27.9973 210.915 27.9996 210.915C28.0018 210.915 28.0041 210.915 28.0063 210.915C28.0086 210.915 28.0108 210.915 28.013 210.915C28.0152 210.915 28.0174 210.915 28.0196 210.915C28.0219 210.915 28.024 210.915 28.0262 210.915V206.915V202.915C28.024 202.915 28.0219 202.915 28.0196 202.915C28.0174 202.915 28.0152 202.915 28.013 202.915C28.0108 202.915 28.0086 202.915 28.0063 202.915C28.0041 202.915 28.0018 202.915 27.9996 202.915C27.9973 202.915 27.995 202.915 27.9927 202.915C27.9905 202.915 27.9882 202.915 27.9859 202.915C27.9836 202.915 27.9813 202.915 27.9789 202.915C27.9766 202.915 27.9743 202.915 27.9719 202.915C27.9696 202.915 27.9672 202.915 27.9649 202.915C27.9625 202.915 27.9602 202.915 27.9578 202.915C27.9554 202.915 27.953 202.915 27.9506 202.915C27.9482 202.915 27.9458 202.915 27.9434 202.915C27.9409 202.915 27.9385 202.915 27.9361 202.915C27.9336 202.915 27.9312 202.915 27.9287 202.915C27.9263 202.915 27.9238 202.915 27.9213 202.915C27.9188 202.915 27.9164 202.915 27.9139 202.915C27.9114 202.915 27.9089 202.915 27.9063 202.915C27.9038 202.915 27.9013 202.915 27.8988 202.915C27.8962 202.915 27.8937 202.915 27.8911 202.915C27.8886 202.915 27.886 202.915 27.8834 202.915C27.8808 202.915 27.8783 202.915 27.8757 202.915C27.8731 202.915 27.8705 202.915 27.8679 202.915C27.8653 202.915 27.8626 202.915 27.86 202.915C27.8574 202.915 27.8547 202.915 27.8521 202.915C27.8494 202.915 27.8468 202.915 27.8441 202.915C27.8414 202.915 27.8388 202.915 27.8361 202.915C27.8334 202.915 27.8307 202.915 27.828 202.915C27.8253 202.915 27.8226 202.915 27.8198 202.915C27.8171 202.915 27.8144 202.915 27.8116 202.915C27.8089 202.915 27.8061 202.915 27.8034 202.915C27.8006 202.915 27.7979 202.915 27.7951 202.915C27.7923 202.915 27.7895 202.915 27.7867 202.915C27.7839 202.915 27.7811 202.915 27.7783 202.915C27.7755 202.915 27.7727 202.915 27.7698 202.915C27.767 202.915 27.7641 202.915 27.7613 202.915C27.7584 202.915 27.7556 202.915 27.7527 202.915C27.7498 202.915 27.747 202.915 27.7441 202.915C27.7412 202.915 27.7383 202.915 27.7354 202.915C27.7325 202.915 27.7296 202.915 27.7267 202.915C27.7237 202.915 27.7208 202.915 27.7179 202.915C27.7149 202.915 27.712 202.915 27.709 202.915C27.7061 202.915 27.7031 202.915 27.7001 202.915C27.6971 202.915 27.6942 202.915 27.6912 202.915C27.6882 202.915 27.6852 202.915 27.6822 202.915C27.6792 202.915 27.6761 202.915 27.6731 202.915C27.6701 202.915 27.6671 202.915 27.664 202.915C27.661 202.915 27.6579 202.915 27.6549 202.915C27.6518 202.915 27.6487 202.915 27.6456 202.915C27.6426 202.915 27.6395 202.915 27.6364 202.915C27.6333 202.915 27.6302 202.915 27.6271 202.915C27.624 202.915 27.6208 202.915 27.6177 202.915C27.6146 202.915 27.6114 202.915 27.6083 202.915C27.6052 202.915 27.602 202.915 27.5988 202.915C27.5957 202.915 27.5925 202.915 27.5893 202.915C27.5861 202.915 27.583 202.915 27.5798 202.915C27.5766 202.915 27.5734 202.915 27.5702 202.915C27.5669 202.915 27.5637 202.915 27.5605 202.915C27.5573 202.915 27.554 202.915 27.5508 202.915C27.5475 202.915 27.5443 202.915 27.541 202.915C27.5378 202.915 27.5345 202.915 27.5312 202.915C27.5279 202.915 27.5247 202.915 27.5214 202.915C27.5181 202.915 27.5148 202.915 27.5115 202.915C27.5082 202.915 27.5048 202.915 27.5015 202.915C27.4982 202.915 27.4949 202.915 27.4915 202.915C27.4882 202.915 27.4848 202.915 27.4815 202.915C27.4781 202.915 27.4747 202.915 27.4714 202.915C27.468 202.915 27.4646 202.915 27.4612 202.915C27.4578 202.915 27.4544 202.915 27.451 202.915C27.4476 202.915 27.4442 202.915 27.4408 202.915C27.4374 202.915 27.434 202.915 27.4305 202.915C27.4271 202.915 27.4236 202.915 27.4202 202.915C27.4167 202.915 27.4133 202.915 27.4098 202.915C27.4064 202.915 27.4029 202.915 27.3994 202.915C27.3959 202.915 27.3924 202.915 27.3889 202.915C27.3854 202.915 27.3819 202.915 27.3784 202.915C27.3749 202.915 27.3714 202.915 27.3679 202.915C27.3643 202.915 27.3608 202.915 27.3573 202.915C27.3537 202.915 27.3502 202.915 27.3466 202.915C27.3431 202.915 27.3395 202.915 27.3359 202.915C27.3323 202.915 27.3288 202.915 27.3252 202.915C27.3216 202.915 27.318 202.915 27.3144 202.915C27.3108 202.915 27.3072 202.915 27.3036 202.915C27.3 202.915 27.2963 202.915 27.2927 202.915C27.2891 202.915 27.2854 202.915 27.2818 202.915C27.2781 202.915 27.2745 202.915 27.2708 202.915C27.2672 202.915 27.2635 202.915 27.2598 202.915C27.2562 202.915 27.2525 202.915 27.2488 202.915C27.2451 202.915 27.2414 202.915 27.2377 202.915C27.234 202.915 27.2303 202.915 27.2266 202.915C27.2229 202.915 27.2191 202.915 27.2154 202.915C27.2117 202.915 27.2079 202.915 27.2042 202.915C27.2005 202.915 27.1967 202.915 27.1929 202.915C27.1892 202.915 27.1854 202.915 27.1817 202.915C27.1779 202.915 27.1741 202.915 27.1703 202.915C27.1665 202.915 27.1627 202.915 27.1589 202.915C27.1551 202.915 27.1513 202.915 27.1475 202.915C27.1437 202.915 27.1399 202.915 27.1361 202.915C27.1322 202.915 27.1284 202.915 27.1245 202.915C27.1207 202.915 27.1169 202.915 27.113 202.915C27.1092 202.915 27.1053 202.915 27.1014 202.915C27.0976 202.915 27.0937 202.915 27.0898 202.915C27.0859 202.915 27.082 202.915 27.0781 202.915C27.0742 202.915 27.0703 202.915 27.0664 202.915C27.0625 202.915 27.0586 202.915 27.0547 202.915C27.0508 202.915 27.0468 202.915 27.0429 202.915C27.039 202.915 27.035 202.915 27.0311 202.915C27.0271 202.915 27.0232 202.915 27.0192 202.915C27.0153 202.915 27.0113 202.915 27.0073 202.915C27.0034 202.915 26.9994 202.915 26.9954 202.915C26.9914 202.915 26.9874 202.915 26.9834 202.915C26.9794 202.915 26.9754 202.915 26.9714 202.915C26.9674 202.915 26.9634 202.915 26.9594 202.915C26.9553 202.915 26.9513 202.915 26.9473 202.915C26.9432 202.915 26.9392 202.915 26.9352 202.915C26.9311 202.915 26.9271 202.915 26.923 202.915C26.9189 202.915 26.9149 202.915 26.9108 202.915C26.9067 202.915 26.9026 202.915 26.8986 202.915C26.8945 202.915 26.8904 202.915 26.8863 202.915C26.8822 202.915 26.8781 202.915 26.874 202.915C26.8699 202.915 26.8658 202.915 26.8616 202.915C26.8575 202.915 26.8534 202.915 26.8493 202.915C26.8451 202.915 26.841 202.915 26.8368 202.915C26.8327 202.915 26.8285 202.915 26.8244 202.915C26.8202 202.915 26.8161 202.915 26.8119 202.915C26.8077 202.915 26.8036 202.915 26.7994 202.915C26.7952 202.915 26.791 202.915 26.7868 202.915C26.7826 202.915 26.7784 202.915 26.7742 202.915C26.77 202.915 26.7658 202.915 26.7616 202.915C26.7574 202.915 26.7532 202.915 26.7489 202.915C26.7447 202.915 26.7405 202.915 26.7362 202.915C26.732 202.915 26.7278 202.915 26.7235 202.915C26.7193 202.915 26.715 202.915 26.7108 202.915C26.7065 202.915 26.7022 202.915 26.698 202.915C26.6937 202.915 26.6894 202.915 26.6851 202.915C26.6809 202.915 26.6766 202.915 26.6723 202.915C26.668 202.915 26.6637 202.915 26.6594 202.915C26.6551 202.915 26.6508 202.915 26.6465 202.915C26.6421 202.915 26.6378 202.915 26.6335 202.915C26.6292 202.915 26.6248 202.915 26.6205 202.915C26.6162 202.915 26.6118 202.915 26.6075 202.915C26.6031 202.915 26.5988 202.915 26.5944 202.915C26.5901 202.915 26.5857 202.915 26.5814 202.915C26.577 202.915 26.5726 202.915 26.5682 202.915C26.5639 202.915 26.5595 202.915 26.5551 202.915C26.5507 202.915 26.5463 202.915 26.5419 202.915C26.5375 202.915 26.5331 202.915 26.5287 202.915C26.5243 202.915 26.5199 202.915 26.5155 202.915C26.511 202.915 26.5066 202.915 26.5022 202.915C26.4978 202.915 26.4933 202.915 26.4889 202.915C26.4845 202.915 26.48 202.915 26.4756 202.915C26.4711 202.915 26.4667 202.915 26.4622 202.915C26.4577 202.915 26.4533 202.915 26.4488 202.915C26.4443 202.915 26.4399 202.915 26.4354 202.915C26.4309 202.915 26.4264 202.915 26.4219 202.915C26.4175 202.915 26.413 202.915 26.4085 202.915C26.404 202.915 26.3995 202.915 26.395 202.915C26.3905 202.915 26.386 202.915 26.3814 202.915C26.3769 202.915 26.3724 202.915 26.3679 202.915C26.3634 202.915 26.3588 202.915 26.3543 202.915C26.3498 202.915 26.3452 202.915 26.3407 202.915C26.3361 202.915 26.3316 202.915 26.327 202.915C26.3225 202.915 26.3179 202.915 26.3134 202.915C26.3088 202.915 26.3042 202.915 26.2997 202.915C26.2951 202.915 26.2905 202.915 26.2859 202.915C26.2814 202.915 26.2768 202.915 26.2722 202.915C26.2676 202.915 26.263 202.915 26.2584 202.915C26.2538 202.915 26.2492 202.915 26.2446 202.915C26.24 202.915 26.2354 202.915 26.2308 202.915C26.2262 202.915 26.2215 202.915 26.2169 202.915C26.2123 202.915 26.2077 202.915 26.203 202.915C26.1984 202.915 26.1938 202.915 26.1891 202.915C26.1845 202.915 26.1799 202.915 26.1752 202.915C26.1706 202.915 26.1659 202.915 26.1612 202.915C26.1566 202.915 26.1519 202.915 26.1473 202.915C26.1426 202.915 26.1379 202.915 26.1333 202.915C26.1286 202.915 26.1239 202.915 26.1192 202.915C26.1145 202.915 26.1099 202.915 26.1052 202.915C26.1005 202.915 26.0958 202.915 26.0911 202.915C26.0864 202.915 26.0817 202.915 26.077 202.915C26.0723 202.915 26.0676 202.915 26.0629 202.915C26.0582 202.915 26.0534 202.915 26.0487 202.915C26.044 202.915 26.0393 202.915 26.0345 202.915C26.0298 202.915 26.0251 202.915 26.0204 202.915C26.0156 202.915 26.0109 202.915 26.0061 202.915C26.0014 202.915 25.9966 202.915 25.9919 202.915C25.9871 202.915 25.9824 202.915 25.9776 202.915C25.9729 202.915 25.9681 202.915 25.9634 202.915C25.9586 202.915 25.9538 202.915 25.949 202.915C25.9443 202.915 25.9395 202.915 25.9347 202.915C25.9299 202.915 25.9252 202.915 25.9204 202.915C25.9156 202.915 25.9108 202.915 25.906 202.915C25.9012 202.915 25.8964 202.915 25.8916 202.915C25.8868 202.915 25.882 202.915 25.8772 202.915C25.8724 202.915 25.8676 202.915 25.8628 202.915C25.858 202.915 25.8531 202.915 25.8483 202.915C25.8435 202.915 25.8387 202.915 25.8338 202.915C25.829 202.915 25.8242 202.915 25.8194 202.915C25.8145 202.915 25.8097 202.915 25.8048 202.915C25.8 202.915 25.7952 202.915 25.7903 202.915C25.7855 202.915 25.7806 202.915 25.7758 202.915C25.7709 202.915 25.766 202.915 25.7612 202.915C25.7563 202.915 25.7515 202.915 25.7466 202.915C25.7417 202.915 25.7369 202.915 25.732 202.915C25.7271 202.915 25.7222 202.915 25.7174 202.915C25.7125 202.915 25.7076 202.915 25.7027 202.915C25.6978 202.915 25.693 202.915 25.6881 202.915C25.6832 202.915 25.6783 202.915 25.6734 202.915C25.6685 202.915 25.6636 202.915 25.6587 202.915C25.6538 202.915 25.6489 202.915 25.644 202.915C25.6391 202.915 25.6342 202.915 25.6292 202.915C25.6243 202.915 25.6194 202.915 25.6145 202.915C25.6096 202.915 25.6046 202.915 25.5997 202.915C25.5948 202.915 25.5899 202.915 25.5849 202.915C25.58 202.915 25.5751 202.915 25.5701 202.915C25.5652 202.915 25.5603 202.915 25.5553 202.915C25.5504 202.915 25.5454 202.915 25.5405 202.915C25.5356 202.915 25.5306 202.915 25.5257 202.915C25.5207 202.915 25.5157 202.915 25.5108 202.915C25.5058 202.915 25.5009 202.915 25.4959 202.915C25.491 202.915 25.486 202.915 25.481 202.915C25.4761 202.915 25.4711 202.915 25.4661 202.915C25.4611 202.915 25.4562 202.915 25.4512 202.915C25.4462 202.915 25.4412 202.915 25.4363 202.915C25.4313 202.915 25.4263 202.915 25.4213 202.915C25.4163 202.915 25.4113 202.915 25.4063 202.915C25.4014 202.915 25.3964 202.915 25.3914 202.915C25.3864 202.915 25.3814 202.915 25.3764 202.915C25.3714 202.915 25.3664 202.915 25.3614 202.915C25.3564 202.915 25.3514 202.915 25.3463 202.915C25.3413 202.915 25.3363 202.915 25.3313 202.915C25.3263 202.915 25.3213 202.915 25.3163 202.915C25.3113 202.915 25.3062 202.915 25.3012 202.915C25.2962 202.915 25.2912 202.915 25.2861 202.915C25.2811 202.915 25.2761 202.915 25.2711 202.915C25.266 202.915 25.261 202.915 25.256 202.915C25.2509 202.915 25.2459 202.915 25.2409 202.915C25.2358 202.915 25.2308 202.915 25.2258 202.915C25.2207 202.915 25.2157 202.915 25.2106 202.915C25.2056 202.915 25.2005 202.915 25.1955 202.915C25.1904 202.915 25.1854 202.915 25.1803 202.915C25.1753 202.915 25.1702 202.915 25.1652 202.915C25.1601 202.915 25.1551 202.915 25.15 202.915C25.145 202.915 25.1399 202.915 25.1348 202.915C25.1298 202.915 25.1247 202.915 25.1196 202.915C25.1146 202.915 25.1095 202.915 25.1044 202.915C25.0994 202.915 25.0943 202.915 25.0892 202.915C25.0842 202.915 25.0791 202.915 25.074 202.915C25.0689 202.915 25.0639 202.915 25.0588 202.915C25.0537 202.915 25.0486 202.915 25.0435 202.915C25.0385 202.915 25.0334 202.915 25.0283 202.915C25.0232 202.915 25.0181 202.915 25.013 202.915C25.008 202.915 25.0029 202.915 24.9978 202.915C24.9927 202.915 24.9876 202.915 24.9825 202.915C24.9774 202.915 24.9723 202.915 24.9672 202.915C24.9621 202.915 24.957 202.915 24.9519 202.915C24.9468 202.915 24.9417 202.915 24.9366 202.915C24.9315 202.915 24.9264 202.915 24.9213 202.915C24.9162 202.915 24.9111 202.915 24.906 202.915C24.9009 202.915 24.8958 202.915 24.8907 202.915C24.8856 202.915 24.8805 202.915 24.8754 202.915C24.8703 202.915 24.8652 202.915 24.8601 202.915C24.855 202.915 24.8498 202.915 24.8447 202.915C24.8396 202.915 24.8345 202.915 24.8294 202.915C24.8243 202.915 24.8192 202.915 24.814 202.915C24.8089 202.915 24.8038 202.915 24.7987 202.915C24.7936 202.915 24.7885 202.915 24.7833 202.915C24.7782 202.915 24.7731 202.915 24.768 202.915C24.7629 202.915 24.7577 202.915 24.7526 202.915C24.7475 202.915 24.7424 202.915 24.7372 202.915C24.7321 202.915 24.727 202.915 24.7219 202.915C24.7167 202.915 24.7116 202.915 24.7065 202.915C24.7013 202.915 24.6962 202.915 24.6911 202.915C24.686 202.915 24.6808 202.915 24.6757 202.915C24.6706 202.915 24.6654 202.915 24.6603 202.915C24.6552 202.915 24.65 202.915 24.6449 202.915C24.6398 202.915 24.6346 202.915 24.6295 202.915C24.6244 202.915 24.6192 202.915 24.6141 202.915C24.609 202.915 24.6038 202.915 24.5987 202.915C24.5936 202.915 24.5884 202.915 24.5833 202.915C24.5782 202.915 24.573 202.915 24.5679 202.915C24.5627 202.915 24.5576 202.915 24.5525 202.915C24.5473 202.915 24.5422 202.915 24.537 202.915C24.5319 202.915 24.5268 202.915 24.5216 202.915C24.5165 202.915 24.5114 202.915 24.5062 202.915C24.5011 202.915 24.4959 202.915 24.4908 202.915C24.4857 202.915 24.4805 202.915 24.4754 202.915C24.4702 202.915 24.4651 202.915 24.4599 202.915C24.4548 202.915 24.4497 202.915 24.4445 202.915C24.4394 202.915 24.4342 202.915 24.4291 202.915C24.424 202.915 24.4188 202.915 24.4137 202.915C24.4085 202.915 24.4034 202.915 24.3983 202.915C24.3931 202.915 24.388 202.915 24.3828 202.915C24.3777 202.915 24.3725 202.915 24.3674 202.915C24.3623 202.915 24.3571 202.915 24.352 202.915C24.3468 202.915 24.3417 202.915 24.3366 202.915C24.3314 202.915 24.3263 202.915 24.3211 202.915C24.316 202.915 24.3109 202.915 24.3057 202.915C24.3006 202.915 24.2954 202.915 24.2903 202.915C24.2852 202.915 24.28 202.915 24.2749 202.915C24.2697 202.915 24.2646 202.915 24.2595 202.915C24.2543 202.915 24.2492 202.915 24.244 202.915C24.2389 202.915 24.2338 202.915 24.2286 202.915C24.2235 202.915 24.2184 202.915 24.2132 202.915C24.2081 202.915 24.2029 202.915 24.1978 202.915C24.1927 202.915 24.1875 202.915 24.1824 202.915C24.1773 202.915 24.1721 202.915 24.167 202.915C24.1619 202.915 24.1567 202.915 24.1516 202.915C24.1465 202.915 24.1413 202.915 24.1362 202.915C24.1311 202.915 24.126 202.915 24.1208 202.915C24.1157 202.915 24.1106 202.915 24.1054 202.915C24.1003 202.915 24.0952 202.915 24.0901 202.915C24.0849 202.915 24.0798 202.915 24.0747 202.915C24.0695 202.915 24.0644 202.915 24.0593 202.915C24.0542 202.915 24.0491 202.915 24.0439 202.915C24.0388 202.915 24.0337 202.915 24.0286 202.915C24.0234 202.915 24.0183 202.915 24.0132 202.915C24.0081 202.915 24.003 202.915 23.9979 202.915C23.9927 202.915 23.9876 202.915 23.9825 202.915C23.9774 202.915 23.9723 202.915 23.9672 202.915C23.962 202.915 23.9569 202.915 23.9518 202.915C23.9467 202.915 23.9416 202.915 23.9365 202.915C23.9314 202.915 23.9263 202.915 23.9212 202.915C23.9161 202.915 23.911 202.915 23.9058 202.915C23.9007 202.915 23.8956 202.915 23.8905 202.915C23.8854 202.915 23.8803 202.915 23.8752 202.915C23.8701 202.915 23.865 202.915 23.8599 202.915C23.8548 202.915 23.8497 202.915 23.8446 202.915C23.8396 202.915 23.8345 202.915 23.8294 202.915C23.8243 202.915 23.8192 202.915 23.8141 202.915C23.809 202.915 23.8039 202.915 23.7988 202.915C23.7937 202.915 23.7886 202.915 23.7836 202.915C23.7785 202.915 23.7734 202.915 23.7683 202.915C23.7632 202.915 23.7582 202.915 23.7531 202.915C23.748 202.915 23.7429 202.915 23.7378 202.915C23.7328 202.915 23.7277 202.915 23.7226 202.915C23.7175 202.915 23.7125 202.915 23.7074 202.915C23.7023 202.915 23.6973 202.915 23.6922 202.915C23.6871 202.915 23.6821 202.915 23.677 202.915C23.6719 202.915 23.6669 202.915 23.6618 202.915C23.6568 202.915 23.6517 202.915 23.6467 202.915C23.6416 202.915 23.6365 202.915 23.6315 202.915C23.6264 202.915 23.6214 202.915 23.6163 202.915C23.6113 202.915 23.6062 202.915 23.6012 202.915C23.5961 202.915 23.5911 202.915 23.5861 202.915C23.581 202.915 23.576 202.915 23.5709 202.915C23.5659 202.915 23.5609 202.915 23.5558 202.915C23.5508 202.915 23.5458 202.915 23.5407 202.915C23.5357 202.915 23.5307 202.915 23.5257 202.915C23.5206 202.915 23.5156 202.915 23.5106 202.915C23.5056 202.915 23.5005 202.915 23.4955 202.915C23.4905 202.915 23.4855 202.915 23.4805 202.915C23.4755 202.915 23.4704 202.915 23.4654 202.915C23.4604 202.915 23.4554 202.915 23.4504 202.915C23.4454 202.915 23.4404 202.915 23.4354 202.915C23.4304 202.915 23.4254 202.915 23.4204 202.915C23.4154 202.915 23.4104 202.915 23.4054 202.915C23.4004 202.915 23.3954 202.915 23.3904 202.915C23.3855 202.915 23.3805 202.915 23.3755 202.915C23.3705 202.915 23.3655 202.915 23.3606 202.915C23.3556 202.915 23.3506 202.915 23.3456 202.915C23.3407 202.915 23.3357 202.915 23.3307 202.915C23.3257 202.915 23.3208 202.915 23.3158 202.915C23.3109 202.915 23.3059 202.915 23.3009 202.915C23.296 202.915 23.291 202.915 23.2861 202.915C23.2811 202.915 23.2762 202.915 23.2712 202.915C23.2663 202.915 23.2613 202.915 23.2564 202.915C23.2514 202.915 23.2465 202.915 23.2416 202.915C23.2366 202.915 23.2317 202.915 23.2268 202.915C23.2218 202.915 23.2169 202.915 23.212 202.915C23.207 202.915 23.2021 202.915 23.1972 202.915C23.1923 202.915 23.1874 202.915 23.1824 202.915C23.1775 202.915 23.1726 202.915 23.1677 202.915C23.1628 202.915 23.1579 202.915 23.153 202.915C23.1481 202.915 23.1432 202.915 23.1383 202.915C23.1334 202.915 23.1285 202.915 23.1236 202.915C23.1187 202.915 23.1138 202.915 23.1089 202.915C23.104 202.915 23.0992 202.915 23.0943 202.915C23.0894 202.915 23.0845 202.915 23.0796 202.915C23.0748 202.915 23.0699 202.915 23.065 202.915C23.0602 202.915 23.0553 202.915 23.0504 202.915C23.0456 202.915 23.0407 202.915 23.0359 202.915C23.031 202.915 23.0261 202.915 23.0213 202.915C23.0165 202.915 23.0116 202.915 23.0068 202.915C23.0019 202.915 22.9971 202.915 22.9922 202.915C22.9874 202.915 22.9826 202.915 22.9777 202.915C22.9729 202.915 22.9681 202.915 22.9633 202.915C22.9584 202.915 22.9536 202.915 22.9488 202.915C22.944 202.915 22.9392 202.915 22.9344 202.915C22.9296 202.915 22.9247 202.915 22.9199 202.915C22.9151 202.915 22.9103 202.915 22.9055 202.915C22.9008 202.915 22.896 202.915 22.8912 202.915C22.8864 202.915 22.8816 202.915 22.8768 202.915C22.872 202.915 22.8673 202.915 22.8625 202.915C22.8577 202.915 22.8529 202.915 22.8482 202.915C22.8434 202.915 22.8386 202.915 22.8339 202.915C22.8291 202.915 22.8244 202.915 22.8196 202.915C22.8149 202.915 22.8101 202.915 22.8054 202.915C22.8006 202.915 22.7959 202.915 22.7911 202.915C22.7864 202.915 22.7817 202.915 22.7769 202.915C22.7722 202.915 22.7675 202.915 22.7628 202.915C22.758 202.915 22.7533 202.915 22.7486 202.915C22.7439 202.915 22.7392 202.915 22.7345 202.915C22.7298 202.915 22.725 202.915 22.7204 202.915C22.7157 202.915 22.711 202.915 22.7063 202.915C22.7016 202.915 22.6969 202.915 22.6922 202.915C22.6875 202.915 22.6828 202.915 22.6782 202.915C22.6735 202.915 22.6688 202.915 22.6641 202.915C22.6595 202.915 22.6548 202.915 22.6502 202.915C22.6455 202.915 22.6408 202.915 22.6362 202.915C22.6315 202.915 22.6269 202.915 22.6223 202.915C22.6176 202.915 22.613 202.915 22.6083 202.915C22.6037 202.915 22.5991 202.915 22.5944 202.915C22.5898 202.915 22.5852 202.915 22.5806 202.915C22.576 202.915 22.5714 202.915 22.5667 202.915C22.5621 202.915 22.5575 202.915 22.5529 202.915C22.5483 202.915 22.5437 202.915 22.5391 202.915C22.5346 202.915 22.53 202.915 22.5254 202.915C22.5208 202.915 22.5162 202.915 22.5117 202.915C22.5071 202.915 22.5025 202.915 22.4979 202.915C22.4934 202.915 22.4888 202.915 22.4843 202.915C22.4797 202.915 22.4752 202.915 22.4706 202.915C22.4661 202.915 22.4615 202.915 22.457 202.915C22.4524 202.915 22.4479 202.915 22.4434 202.915C22.4389 202.915 22.4343 202.915 22.4298 202.915C22.4253 202.915 22.4208 202.915 22.4163 202.915C22.4118 202.915 22.4073 202.915 22.4028 202.915C22.3983 202.915 22.3938 202.915 22.3893 202.915C22.3848 202.915 22.3803 202.915 22.3758 202.915C22.3713 202.915 22.3669 202.915 22.3624 202.915C22.3579 202.915 22.3535 202.915 22.349 202.915C22.3445 202.915 22.3401 202.915 22.3356 202.915C22.3312 202.915 22.3267 202.915 22.3223 202.915C22.3178 202.915 22.3134 202.915 22.309 202.915C22.3045 202.915 22.3001 202.915 22.2957 202.915C22.2913 202.915 22.2869 202.915 22.2824 202.915C22.278 202.915 22.2736 202.915 22.2692 202.915C22.2648 202.915 22.2604 202.915 22.256 202.915C22.2516 202.915 22.2473 202.915 22.2429 202.915C22.2385 202.915 22.2341 202.915 22.2297 202.915C22.2254 202.915 22.221 202.915 22.2166 202.915C22.2123 202.915 22.2079 202.915 22.2036 202.915C22.1992 202.915 22.1949 202.915 22.1905 202.915C22.1862 202.915 22.1819 202.915 22.1775 202.915C22.1732 202.915 22.1689 202.915 22.1646 202.915C22.1603 202.915 22.1559 202.915 22.1516 202.915C22.1473 202.915 22.143 202.915 22.1387 202.915C22.1344 202.915 22.1301 202.915 22.1259 202.915C22.1216 202.915 22.1173 202.915 22.113 202.915C22.1087 202.915 22.1045 202.915 22.1002 202.915C22.096 202.915 22.0917 202.915 22.0874 202.915C22.0832 202.915 22.0789 202.915 22.0747 202.915C22.0705 202.915 22.0662 202.915 22.062 202.915C22.0578 202.915 22.0535 202.915 22.0493 202.915C22.0451 202.915 22.0409 202.915 22.0367 202.915C22.0325 202.915 22.0283 202.915 22.0241 202.915C22.0199 202.915 22.0157 202.915 22.0115 202.915C22.0073 202.915 22.0032 202.915 21.999 202.915C21.9948 202.915 21.9906 202.915 21.9865 202.915C21.9823 202.915 21.9782 202.915 21.974 202.915C21.9699 202.915 21.9657 202.915 21.9616 202.915C21.9575 202.915 21.9533 202.915 21.9492 202.915C21.9451 202.915 21.941 202.915 21.9368 202.915C21.9327 202.915 21.9286 202.915 21.9245 202.915C21.9204 202.915 21.9163 202.915 21.9122 202.915C21.9081 202.915 21.9041 202.915 21.9 202.915C21.8959 202.915 21.8918 202.915 21.8878 202.915C21.8837 202.915 21.8797 202.915 21.8756 202.915C21.8715 202.915 21.8675 202.915 21.8635 202.915C21.8594 202.915 21.8554 202.915 21.8514 202.915C21.8473 202.915 21.8433 202.915 21.8393 202.915C21.8353 202.915 21.8313 202.915 21.8273 202.915C21.8233 202.915 21.8193 202.915 21.8153 202.915C21.8113 202.915 21.8073 202.915 21.8033 202.915C21.7994 202.915 21.7954 202.915 21.7914 202.915C21.7875 202.915 21.7835 202.915 21.7796 202.915C21.7756 202.915 21.7717 202.915 21.7677 202.915C21.7638 202.915 21.7598 202.915 21.7559 202.915C21.752 202.915 21.7481 202.915 21.7442 202.915C21.7403 202.915 21.7363 202.915 21.7324 202.915C21.7285 202.915 21.7247 202.915 21.7208 202.915C21.7169 202.915 21.713 202.915 21.7091 202.915C21.7053 202.915 21.7014 202.915 21.6975 202.915C21.6937 202.915 21.6898 202.915 21.686 202.915C21.6821 202.915 21.6783 202.915 21.6745 202.915C21.6706 202.915 21.6668 202.915 21.663 202.915C21.6592 202.915 21.6554 202.915 21.6516 202.915C21.6477 202.915 21.644 202.915 21.6402 202.915C21.6364 202.915 21.6326 202.915 21.6288 202.915C21.625 202.915 21.6213 202.915 21.6175 202.915C21.6137 202.915 21.61 202.915 21.6062 202.915C21.6025 202.915 21.5987 202.915 21.595 202.915C21.5913 202.915 21.5875 202.915 21.5838 202.915C21.5801 202.915 21.5764 202.915 21.5727 202.915C21.569 202.915 21.5653 202.915 21.5616 202.915C21.5579 202.915 21.5542 202.915 21.5505 202.915C21.5468 202.915 21.5432 202.915 21.5395 202.915C21.5358 202.915 21.5322 202.915 21.5285 202.915C21.5249 202.915 21.5212 202.915 21.5176 202.915C21.514 202.915 21.5103 202.915 21.5067 202.915C21.5031 202.915 21.4995 202.915 21.4959 202.915C21.4923 202.915 21.4887 202.915 21.4851 202.915C21.4815 202.915 21.4779 202.915 21.4743 202.915C21.4707 202.915 21.4672 202.915 21.4636 202.915C21.4601 202.915 21.4565 202.915 21.453 202.915C21.4494 202.915 21.4459 202.915 21.4423 202.915C21.4388 202.915 21.4353 202.915 21.4318 202.915C21.4282 202.915 21.4247 202.915 21.4212 202.915C21.4177 202.915 21.4142 202.915 21.4107 202.915C21.4073 202.915 21.4038 202.915 21.4003 202.915C21.3968 202.915 21.3934 202.915 21.3899 202.915C21.3865 202.915 21.383 202.915 21.3796 202.915C21.3761 202.915 21.3727 202.915 21.3693 202.915V206.915ZM28.0262 206.915V210.915C28.6797 210.915 29.8117 210.75 30.7309 210.612C31.8284 210.447 33.213 210.221 34.6797 209.974C37.6175 209.479 40.9529 208.886 43.1286 208.491L42.4138 204.555L41.6991 200.62C39.5442 201.011 36.244 201.598 33.3499 202.085C31.9006 202.33 30.57 202.546 29.5418 202.701C28.3354 202.882 27.9311 202.915 28.0262 202.915V206.915ZM42.4138 204.555V208.555H56.4793V204.555V200.555H42.4138V204.555ZM56.4793 204.555L58.325 208.104C59.1496 207.675 60.8663 206.984 62.947 206.574C65.0351 206.162 67.195 206.09 69.0631 206.599L70.1153 202.74L71.1675 198.881C67.7101 197.938 64.2151 198.169 61.3982 198.725C58.5738 199.282 56.1354 200.225 54.6336 201.006L56.4793 204.555ZM70.1153 202.74L69.0631 206.599C73.0492 207.686 77.2667 207.647 80.8454 207.412C82.6443 207.294 84.4082 207.116 85.91 206.979C87.4699 206.836 88.733 206.74 89.764 206.74V202.74V198.74C88.3255 198.74 86.73 198.871 85.1828 199.012C83.5775 199.158 81.9861 199.32 80.3224 199.429C76.9757 199.649 73.8383 199.609 71.1675 198.881L70.1153 202.74ZM89.764 202.74V206.74C90.655 206.74 91.9229 206.895 93.6227 207.154C95.2037 207.395 97.1454 207.723 98.974 207.938C100.798 208.152 102.829 208.297 104.703 208.095C106.495 207.902 108.874 207.317 110.579 205.395L107.587 202.74L104.595 200.085C104.852 199.796 104.895 200.028 103.845 200.142C102.878 200.246 101.56 200.187 99.9075 199.993C98.26 199.799 96.5981 199.515 94.8272 199.245C93.175 198.994 91.3425 198.74 89.764 198.74V202.74ZM107.587 202.74L110.579 205.395C111.334 204.545 111.9 203.483 112.321 202.584C112.773 201.619 113.206 200.515 113.617 199.379C114.431 197.13 115.281 194.408 116.088 191.933C116.923 189.372 117.72 187.047 118.496 185.287C118.884 184.404 119.212 183.794 119.465 183.417C119.788 182.935 119.721 183.236 119.14 183.504L117.466 179.871L115.791 176.239C114.324 176.915 113.375 178.135 112.821 178.961C112.196 179.892 111.651 180.979 111.174 182.062C110.218 184.232 109.311 186.909 108.482 189.453C107.625 192.083 106.85 194.568 106.094 196.657C105.72 197.691 105.382 198.539 105.077 199.189C104.742 199.905 104.566 200.118 104.595 200.085L107.587 202.74ZM117.466 179.871L119.14 183.504C120.447 182.901 121.746 181.98 122.832 181.158C123.851 180.387 125.227 179.272 126.139 178.567C127.215 177.735 128.096 177.11 128.813 176.716C129.657 176.252 129.65 176.463 129.135 176.403L129.598 172.43L130.062 168.457C127.99 168.215 126.13 169.062 124.961 169.704C123.665 170.416 122.372 171.367 121.247 172.237C119.958 173.233 119.106 173.945 118.004 174.779C116.97 175.562 116.255 176.025 115.791 176.239L117.466 179.871ZM129.598 172.43L129.135 176.403C131.571 176.687 133.988 176.104 135.979 175.416C138.013 174.712 140.014 173.746 141.668 172.934L139.906 169.343L138.144 165.753C136.469 166.574 134.874 167.333 133.364 167.855C131.812 168.392 130.739 168.536 130.062 168.457L129.598 172.43ZM139.906 169.343L141.668 172.934C143.446 172.062 145.721 170.356 147.608 168.843C149.593 167.251 151.516 165.57 152.694 164.494L149.999 161.539L147.303 158.584C146.227 159.565 144.434 161.133 142.603 162.602C140.673 164.15 139.028 165.318 138.144 165.753L139.906 169.343ZM149.999 161.539L152.256 164.841C153.774 163.803 156.195 162.252 158.478 160.997C159.625 160.366 160.66 159.853 161.486 159.516C162.513 159.098 162.624 159.205 162.204 159.179L162.454 155.187L162.704 151.195C161.124 151.096 159.496 151.688 158.468 152.107C157.239 152.608 155.902 153.284 154.623 153.987C152.055 155.399 149.408 157.097 147.741 158.237L149.999 161.539ZM162.454 155.187L162.204 159.179C163.988 159.291 167.765 159.127 171.229 158.755C172.991 158.566 174.807 158.309 176.354 157.971C177.124 157.802 177.907 157.597 178.618 157.339C179.236 157.116 180.199 156.716 181.012 155.989L178.344 153.008L175.677 150.027C176.033 149.709 176.248 149.689 175.895 149.817C175.635 149.911 175.223 150.029 174.644 150.156C173.493 150.407 171.994 150.627 170.375 150.801C167.074 151.155 163.818 151.264 162.704 151.195L162.454 155.187ZM178.344 153.008L181.012 155.989C180.669 156.295 180.668 156.135 181.769 155.854C182.642 155.63 183.777 155.434 185.026 155.274C187.53 154.954 190.071 154.83 191.014 154.83V150.83V146.83C189.702 146.83 186.821 146.979 184.01 147.339C182.602 147.519 181.106 147.766 179.785 148.104C178.691 148.383 176.932 148.904 175.677 150.027L178.344 153.008ZM191.014 150.83V154.83C192.632 154.83 195.368 154.374 197.734 153.779C198.964 153.47 200.255 153.083 201.39 152.625C202.323 152.248 203.863 151.557 204.899 150.343L201.858 147.745L198.817 145.146C199.156 144.749 199.273 144.852 198.394 145.207C197.718 145.48 196.807 145.763 195.783 146.021C193.639 146.56 191.651 146.83 191.014 146.83V150.83ZM201.858 147.745L204.899 150.343C205.433 149.719 206.84 148.311 208.399 146.87C209.154 146.172 209.895 145.512 210.522 144.984C210.835 144.719 211.103 144.502 211.319 144.336C211.554 144.156 211.657 144.09 211.656 144.091L209.589 140.666L207.522 137.242C206.352 137.948 204.458 139.619 202.968 140.996C201.386 142.459 199.68 144.137 198.817 145.146L201.858 147.745ZM209.589 140.666L211.656 144.091C212.424 143.627 213.013 142.972 213.321 142.617C213.712 142.167 214.11 141.645 214.49 141.117C215.255 140.054 216.095 138.758 216.883 137.485C218.431 134.983 219.977 132.242 220.506 131.125L216.89 129.414L213.275 127.703C212.944 128.4 211.592 130.832 210.08 133.276C209.337 134.476 208.607 135.596 207.997 136.444C207.689 136.871 207.448 137.179 207.277 137.377C207.024 137.669 207.13 137.479 207.522 137.242L209.589 140.666ZM216.89 129.414L220.506 131.125C220.856 130.384 222.901 126.521 225.227 122.723C226.386 120.83 227.554 119.053 228.567 117.731C229.077 117.066 229.486 116.596 229.784 116.304C230.195 115.902 230.061 116.166 229.466 116.352L228.271 112.535L227.077 108.717C225.757 109.13 224.751 110.035 224.187 110.588C223.509 111.251 222.841 112.05 222.215 112.868C220.956 114.512 219.621 116.558 218.405 118.545C215.979 122.505 213.783 126.628 213.275 127.703L216.89 129.414ZM228.271 112.535L229.466 116.352C230.832 115.925 232.032 115.145 232.956 114.447C233.919 113.719 234.832 112.885 235.617 112.131C236.277 111.499 237.275 110.498 237.714 110.073C238.008 109.787 238.245 109.566 238.436 109.4C238.643 109.22 238.714 109.177 238.681 109.198L236.539 105.819L234.397 102.441C233.568 102.966 232.738 103.755 232.146 104.328C231.327 105.122 230.909 105.562 230.079 106.358C229.374 107.035 228.724 107.618 228.133 108.064C227.504 108.54 227.161 108.691 227.077 108.717L228.271 112.535ZM236.539 105.819L238.681 109.198C239.54 108.653 240.152 107.843 240.411 107.497C240.785 107 241.172 106.411 241.55 105.801C242.313 104.571 243.184 103.017 244.055 101.395C245.803 98.1381 247.662 94.3972 248.841 91.9434L245.236 90.2105L241.631 88.4777C240.484 90.8638 238.681 94.4916 237.006 97.6111C236.165 99.1774 235.384 100.564 234.751 101.586C234.431 102.102 234.184 102.467 234.012 102.696C233.726 103.078 233.882 102.768 234.397 102.441L236.539 105.819ZM245.236 90.2105L249.04 91.4459C250.319 87.508 252.492 81.4373 254.832 76.0688C256.005 73.3781 257.184 70.9485 258.278 69.0779C258.826 68.1424 259.315 67.4104 259.734 66.8795C260.185 66.3071 260.406 66.1599 260.369 66.1831L258.228 62.8047L256.086 59.4262C255.019 60.1028 254.142 61.0507 253.452 61.9257C252.729 62.8423 252.033 63.9102 251.373 65.0379C250.053 67.2937 248.732 70.0436 247.499 72.8718C245.027 78.5412 242.765 84.8668 241.431 88.9752L245.236 90.2105ZM258.228 62.8047L260.369 66.1831C262.178 65.0367 264.465 62.7009 266.626 60.3727C268.898 57.9241 271.524 54.9259 274.008 52.1601C276.545 49.3348 278.961 46.7213 280.988 44.8166C282.006 43.8597 282.832 43.1722 283.456 42.7432C284.253 42.1952 284.172 42.4545 283.513 42.481L283.352 38.4842L283.191 34.4874C281.405 34.5593 279.855 35.5106 278.923 36.1515C277.818 36.9114 276.656 37.9099 275.51 38.9862C273.209 41.1482 270.591 43.991 268.056 46.8147C265.466 49.6979 262.979 52.5417 260.761 54.931C258.432 57.4409 256.854 58.9392 256.086 59.4262L258.228 62.8047ZM283.352 38.4842L283.513 42.481C285.388 42.4055 287.245 41.5591 288.646 40.7939C290.181 39.9562 291.787 38.8634 293.301 37.7312C296.337 35.4617 299.322 32.7948 301.163 31.016L298.384 28.1389L295.605 25.2619C293.939 26.871 291.212 29.3042 288.511 31.324C287.156 32.3365 285.887 33.1857 284.813 33.772C283.606 34.4308 283.12 34.4903 283.191 34.4874L283.352 38.4842ZM298.384 28.1389L301.307 30.8694C303.448 28.5778 308.193 23.4862 309.932 21.575L306.974 18.8827L304.016 16.1903C302.319 18.0543 297.615 23.1022 295.461 25.4085L298.384 28.1389ZM306.974 18.8827L309.932 21.575C310.884 20.5293 313.91 17.5053 317.12 14.7047C318.721 13.3074 320.289 12.0351 321.612 11.1127C322.275 10.6503 322.812 10.3221 323.213 10.1158C323.688 9.87225 323.701 9.94168 323.392 9.97432L322.972 5.99645L322.552 2.01859C321.384 2.14198 320.32 2.60843 319.559 2.99937C318.725 3.42767 317.867 3.97149 317.037 4.54978C315.374 5.70893 313.56 7.19308 311.86 8.67711C308.466 11.639 305.211 14.8766 304.016 16.1903L306.974 18.8827ZM322.972 5.99645L325.624 8.99122L327.878 6.99477L325.227 4L322.575 1.00523L320.32 3.00169L322.972 5.99645Z" fill="#00CD89"/>
</svg>
